<svg xmlns="http://www.w3.org/2000/svg" width="1200" height="800" viewBox="0 0 1200 800">
<defs><linearGradient id="s" x1="0" y1="0" x2="0" y2="1"><stop offset="0" stop-color="hsl(124,45%,14%)"/><stop offset="1" stop-color="hsl(154,50%,32%)"/></linearGradient>
<radialGradient id="g"><stop offset="0" stop-color="#fff" stop-opacity=".9"/><stop offset="1" stop-color="#fff" stop-opacity="0"/></radialGradient></defs>
<rect width="1200" height="800" fill="url(#s)"/><circle cx="1073" cy="327" r="0.7" fill="#fff" opacity="0.88"/><circle cx="721" cy="34" r="0.8" fill="#fff" opacity="0.51"/><circle cx="1133" cy="184" r="0.6" fill="#fff" opacity="0.55"/><circle cx="1148" cy="175" r="1.6" fill="#fff" opacity="0.51"/><circle cx="1158" cy="122" r="2.3" fill="#fff" opacity="0.98"/><circle cx="584" cy="271" r="1.0" fill="#fff" opacity="0.61"/><circle cx="310" cy="223" r="2.7" fill="#fff" opacity="0.43"/><circle cx="1081" cy="227" r="2.3" fill="#fff" opacity="0.74"/><circle cx="915" cy="122" r="1.8" fill="#fff" opacity="0.65"/><circle cx="493" cy="301" r="2.5" fill="#fff" opacity="0.96"/><circle cx="777" cy="28" r="1.0" fill="#fff" opacity="0.81"/><circle cx="420" cy="24" r="2.7" fill="#fff" opacity="0.52"/><circle cx="144" cy="268" r="2.3" fill="#fff" opacity="0.54"/><circle cx="210" cy="338" r="2.2" fill="#fff" opacity="0.42"/><circle cx="1006" cy="70" r="0.7" fill="#fff" opacity="0.51"/><circle cx="628" cy="265" r="2.2" fill="#fff" opacity="0.94"/><circle cx="990" cy="292" r="2.3" fill="#fff" opacity="0.59"/><circle cx="735" cy="156" r="1.9" fill="#fff" opacity="0.40"/><circle cx="371" cy="76" r="1.3" fill="#fff" opacity="0.66"/><circle cx="492" cy="204" r="1.7" fill="#fff" opacity="0.67"/><circle cx="1183" cy="133" r="2.7" fill="#fff" opacity="0.67"/><circle cx="652" cy="326" r="2.7" fill="#fff" opacity="0.49"/><circle cx="130" cy="239" r="0.7" fill="#fff" opacity="0.91"/><circle cx="31" cy="193" r="0.9" fill="#fff" opacity="0.59"/><circle cx="522" cy="173" r="1.3" fill="#fff" opacity="0.66"/><circle cx="265" cy="5" r="2.1" fill="#fff" opacity="0.71"/><circle cx="97" cy="259" r="0.8" fill="#fff" opacity="0.43"/><circle cx="48" cy="81" r="0.9" fill="#fff" opacity="0.44"/><circle cx="1157" cy="163" r="1.3" fill="#fff" opacity="0.92"/><circle cx="344" cy="56" r="1.1" fill="#fff" opacity="0.56"/><circle cx="1169" cy="257" r="2.3" fill="#fff" opacity="0.88"/><circle cx="742" cy="152" r="1.3" fill="#fff" opacity="0.60"/><circle cx="964" cy="305" r="2.6" fill="#fff" opacity="0.99"/><circle cx="1076" cy="239" r="2.8" fill="#fff" opacity="0.93"/><circle cx="867" cy="299" r="0.8" fill="#fff" opacity="0.47"/><circle cx="585" cy="90" r="2.6" fill="#fff" opacity="0.99"/><circle cx="739" cy="125" r="1.0" fill="#fff" opacity="0.60"/><circle cx="892" cy="46" r="2.0" fill="#fff" opacity="0.89"/><circle cx="918" cy="116" r="2.1" fill="#fff" opacity="0.77"/><circle cx="99" cy="316" r="1.4" fill="#fff" opacity="0.79"/>
<circle cx="650" cy="247" r="147" fill="url(#g)"/><circle cx="650" cy="247" r="49" fill="#f4f1de"/>
<path d="M0 800 L0 458.0384748242796 L133.33333333333334 420 L266.6666666666667 339 L400 456 L533.3333333333334 434 L666.6666666666667 302 L800.0000000000001 321 L933.3333333333335 342 L1066.6666666666667 356 L1200 341 L1333.3333333333333 286 L1200 800 Z" fill="hsl(324,30%,22%)"/>
<path d="M0 800 L0 538.0384748242795 L171.42857142857142 424 L342.85714285714283 504 L514.2857142857142 471 L685.7142857142857 470 L857.1428571428571 390 L1028.5714285714284 463 L1199.9999999999998 471 L1371.428571428571 449 L1200 800 Z" fill="hsl(339,35%,14%)"/>
<path d="M0 800 L0 634.0384748242795 L240 557 L480 618 L720 557 L960 543 L1200 609 L1440 632 L1200 800 Z" fill="hsl(354,40%,8%)"/>
</svg>